<?xml version="1.0" encoding="UTF-8" standalone="no"?>
<!-- Created with Inkscape (http://www.inkscape.org/) -->

<svg
   xmlns:dc="http://purl.org/dc/elements/1.1/"
   xmlns:cc="http://creativecommons.org/ns#"
   xmlns:rdf="http://www.w3.org/1999/02/22-rdf-syntax-ns#"
   xmlns:svg="http://www.w3.org/2000/svg"
   xmlns="http://www.w3.org/2000/svg"
   xmlns:sodipodi="http://sodipodi.sourceforge.net/DTD/sodipodi-0.dtd"
   xmlns:inkscape="http://www.inkscape.org/namespaces/inkscape"
   width="360"
   height="128"
   id="svg2"
   version="1.1"
   inkscape:version="0.48.4 r9939"
   sodipodi:docname="FormelWiderstandDV.svg"
   inkscape:export-filename="/var/run/media/build/0ED851F9D851E00F/Documents and Settings/Farschad/Documents/Trinkwasser/GrafischeSymbole/FormelWiderstandDV.png"
   inkscape:export-xdpi="75"
   inkscape:export-ydpi="75">
  <defs
     id="defs4">
    <marker
       inkscape:stockid="Arrow1Lend"
       orient="auto"
       refY="0"
       refX="0"
       id="Arrow1Lend"
       style="overflow:visible">
      <path
         id="path4065"
         d="M 0,0 5,-5 -12.5,0 5,5 0,0 z"
         style="fill-rule:evenodd;stroke:#000000;stroke-width:1pt"
         transform="matrix(-0.8,0,0,-0.8,-10,0)"
         inkscape:connector-curvature="0" />
    </marker>
  </defs>
  <sodipodi:namedview
     id="base"
     pagecolor="#ffffff"
     bordercolor="#666666"
     borderopacity="1.0"
     inkscape:pageopacity="0.0"
     inkscape:pageshadow="2"
     inkscape:zoom="2.1838743"
     inkscape:cx="166.25783"
     inkscape:cy="94.381773"
     inkscape:document-units="px"
     inkscape:current-layer="layer1"
     showgrid="false"
     inkscape:window-width="1135"
     inkscape:window-height="628"
     inkscape:window-x="1229"
     inkscape:window-y="113"
     inkscape:window-maximized="0" />
  <metadata
     id="metadata7">
    <rdf:RDF>
      <cc:Work
         rdf:about="">
        <dc:format>image/svg+xml</dc:format>
        <dc:type
           rdf:resource="http://purl.org/dc/dcmitype/StillImage" />
        <dc:title></dc:title>
      </cc:Work>
    </rdf:RDF>
  </metadata>
  <g
     inkscape:label="Ebene 1"
     inkscape:groupmode="layer"
     id="layer1"
     transform="translate(0,-924.36218)">
    <text
       xml:space="preserve"
       style="font-size:40px;font-style:normal;font-weight:normal;line-height:125%;letter-spacing:0px;word-spacing:0px;fill:#000000;fill-opacity:1;stroke:none;font-family:Sans"
       x="57.285713"
       y="998.93829"
       id="text2985"
       sodipodi:linespacing="125%"
       inkscape:export-filename="/var/run/media/build/0ED851F9D851E00F/Documents and Settings/Farschad/Documents/Trinkwasser/GrafischeSymbole/FormelZeichenAP.png"
       inkscape:export-xdpi="75"
       inkscape:export-ydpi="75"><tspan
         sodipodi:role="line"
         id="tspan2987"
         x="57.285713"
         y="998.93829">E</tspan></text>
    <path
       style="fill:none;stroke:#000000;stroke-width:2;stroke-linecap:butt;stroke-linejoin:miter;stroke-miterlimit:4;stroke-opacity:1;stroke-dasharray:none"
       d="m 29.926065,968.81117 -18.972744,32.12903 22.486216,0 z"
       id="path2995"
       inkscape:connector-curvature="0"
       inkscape:export-filename="/var/run/media/build/0ED851F9D851E00F/Documents and Settings/Farschad/Documents/Trinkwasser/GrafischeSymbole/FormelZeichenAP.png"
       inkscape:export-xdpi="75"
       inkscape:export-ydpi="75" />
    <path
       style="fill:none;stroke:#000000;stroke-width:2;stroke-linecap:butt;stroke-linejoin:miter;stroke-miterlimit:4;stroke-opacity:1;stroke-dasharray:none"
       d="m 41.75,978.71499 -5.535714,28.39291"
       id="path3001"
       inkscape:connector-curvature="0"
       inkscape:export-filename="/var/run/media/build/0ED851F9D851E00F/Documents and Settings/Farschad/Documents/Trinkwasser/GrafischeSymbole/FormelZeichenAP.png"
       inkscape:export-xdpi="75"
       inkscape:export-ydpi="75" />
    <path
       sodipodi:type="arc"
       style="fill:#000f8d;fill-opacity:0.0551181;fill-rule:nonzero;stroke:#000000;stroke-width:2.29005694;stroke-linecap:square;stroke-miterlimit:2.29999995;stroke-opacity:1;stroke-dasharray:none;stroke-dashoffset:0"
       id="path3003"
       sodipodi:cx="51.964287"
       sodipodi:cy="100.625"
       sodipodi:rx="11.773661"
       sodipodi:ry="10.386137"
       d="M 55.923039,110.40643 A 11.773661,10.386137 0 1 1 51.991408,90.238891"
       transform="matrix(-1.008529,0,0,0.75627371,94.23179,911.0653)"
       sodipodi:start="1.2278769"
       sodipodi:end="4.7146925"
       sodipodi:open="true"
       inkscape:export-filename="/var/run/media/build/0ED851F9D851E00F/Documents and Settings/Farschad/Documents/Trinkwasser/GrafischeSymbole/FormelZeichenAP.png"
       inkscape:export-xdpi="75"
       inkscape:export-ydpi="75" />
    <text
       xml:space="preserve"
       style="font-size:40px;font-style:normal;font-weight:normal;line-height:125%;letter-spacing:0px;word-spacing:0px;fill:#000000;fill-opacity:1;stroke:none;font-family:Sans"
       x="97.44088"
       y="1000.2391"
       id="text3794"
       sodipodi:linespacing="125%"><tspan
         sodipodi:role="line"
         id="tspan3796"
         x="97.44088"
         y="1000.2391">=</tspan></text>
    <path
       style="fill:none;stroke:#000000;stroke-width:2;stroke-linecap:butt;stroke-linejoin:miter;stroke-miterlimit:4;stroke-opacity:1;stroke-dasharray:none"
       d="m 256.51958,947.35856 -5.53571,28.39285"
       id="path3001-1"
       inkscape:connector-curvature="0"
       inkscape:export-filename="/var/run/media/build/0ED851F9D851E00F/Documents and Settings/Farschad/Documents/Trinkwasser/GrafischeSymbole/FormelZeichenDPg.png"
       inkscape:export-xdpi="75"
       inkscape:export-ydpi="75" />
    <path
       sodipodi:type="arc"
       style="fill:#000f8d;fill-opacity:0.0551181;fill-rule:nonzero;stroke:#000000;stroke-width:2.29005694;stroke-linecap:square;stroke-miterlimit:2.29999995;stroke-opacity:1;stroke-dasharray:none;stroke-dashoffset:0"
       id="path3003-0"
       sodipodi:cx="51.964287"
       sodipodi:cy="100.625"
       sodipodi:rx="11.773661"
       sodipodi:ry="10.386137"
       d="M 60.065696,108.16139 A 11.773661,10.386137 0 1 1 58.266515,91.852106"
       transform="matrix(-0.8052758,0,0,0.76597001,302.29377,877.91723)"
       sodipodi:start="0.81193452"
       sodipodi:end="5.2772305"
       inkscape:export-filename="/var/run/media/build/0ED851F9D851E00F/Documents and Settings/Farschad/Documents/Trinkwasser/GrafischeSymbole/FormelZeichenDPg.png"
       inkscape:export-xdpi="75"
       inkscape:export-ydpi="75"
       sodipodi:open="true" />
    <path
       style="fill:none;stroke:#000000;stroke-width:2;stroke-linecap:butt;stroke-linejoin:miter;stroke-miterlimit:4;stroke-opacity:1;stroke-dasharray:none"
       d="m 229.19438,987.86507 52.75566,0.484"
       id="path3870"
       inkscape:connector-curvature="0" />
    <text
       xml:space="preserve"
       style="font-size:40px;font-style:normal;font-weight:normal;line-height:125%;letter-spacing:0px;word-spacing:0px;fill:#000000;fill-opacity:1;stroke:none;font-family:Sans"
       x="241.33983"
       y="1027.8427"
       id="text3897"
       sodipodi:linespacing="125%"><tspan
         sodipodi:role="line"
         id="tspan3899"
         x="241.33983"
         y="1027.8427">2</tspan></text>
    <path
       style="fill:none;stroke:#000000;stroke-width:4.5999999;stroke-linecap:round;stroke-linejoin:miter;stroke-miterlimit:4;stroke-opacity:1;stroke-dasharray:none;marker-end:none"
       d="m 181.01056,950.45117 -3.84639,-3.46175 -35.38675,0 21.9244,35.38675 -23.84759,35.38673 40.77169,0 3.84638,-6.1542"
       id="path3288"
       inkscape:connector-curvature="0" />
    <path
       style="fill:none;stroke:#000000;stroke-width:3.26900005;stroke-linecap:round;stroke-linejoin:miter;stroke-miterlimit:4;stroke-opacity:1;stroke-dasharray:none"
       d="m 220.29645,956.06383 c 0.3281,-0.33654 1.01029,1.15276 1.34127,1.35311 0.0666,0.0405 0.1569,-0.0403 0.22355,0 0.0943,0.057 0.12928,0.21357 0.22353,0.27063 0.0667,0.0405 0.15691,-0.0404 0.22354,0 0.0943,0.0569 0.12929,0.21356 0.22355,0.27062 0.0666,0.0405 0.1569,-0.0404 0.22353,0 0.0943,0.0569 0.12931,0.21358 0.22356,0.27064 0.13328,0.0808 0.31379,-0.0808 0.44708,0 0.0943,0.0569 0.12929,0.21356 0.22355,0.27062 0.068,0.0412 0.56996,0 0.67062,0 0.59612,0 1.19223,0 1.78834,0 0.37257,0 0.74515,0 1.11772,0 0.0745,0 0.14902,0 0.22354,0 0.0745,0 0.1569,0.0405 0.22354,0 0.0943,-0.0569 0.1293,-0.21358 0.22355,-0.27062 0.13329,-0.0808 0.31378,0.0808 0.44709,0 0.0943,-0.0571 0.12929,-0.21359 0.22354,-0.27064 0.17884,-0.10821 0.49178,0.10822 0.67062,0 0.0943,-0.0569 0.1293,-0.21356 0.22355,-0.27062 0.0667,-0.0404 0.15284,0.0285 0.22353,0 0.15807,-0.0638 0.28904,-0.20685 0.44711,-0.27063 0.15375,-0.062 0.53873,0.0798 0.67062,0 0.0943,-0.0571 0.12928,-0.21355 0.22352,-0.27062 0.0667,-0.0405 0.15693,0.0405 0.22355,0 0.0943,-0.0569 0.1293,-0.21356 0.22355,-0.27062 0.17883,-0.10821 0.4918,0.10822 0.67064,0 0.0943,-0.057 0.12928,-0.21358 0.22353,-0.27063 0.0667,-0.0405 0.1569,0.0405 0.22355,0 0.0943,-0.0569 0.12929,-0.21357 0.22355,-0.27061 0.1333,-0.0808 0.31378,0.0808 0.44708,0 0.48454,-0.29333 -0.0375,-0.24796 0.44708,-0.54126 0.0666,-0.0405 0.1569,0.0405 0.22354,0 0.10357,-0.0626 0.7627,-0.92336 0.89417,-1.08249 0.14903,-0.18044 0.29806,-0.36086 0.4471,-0.54128 0.0745,-0.0903 0.14901,-0.36084 0.22354,-0.27062 0.0745,0.0902 -0.32892,0.27062 -0.22354,0.27062 0.002,0 0.67062,-0.33523 0.67062,-0.54126 0,-0.0902 -0.14902,0 -0.22354,0 -0.32892,0 -0.17085,-0.0637 -0.44708,0.27064 -0.29807,0.36084 -0.59612,0.72166 -0.89418,1.08252 -0.0745,0.0902 -0.14904,0.18041 -0.22355,0.27063 -0.0745,0.0902 -0.12928,0.21354 -0.22354,0.27062 -0.0666,0.0405 -0.1569,-0.0405 -0.22354,0 -0.26826,0.16236 -0.40236,0.64949 -0.67063,0.81188 -0.0666,0.0403 -0.15689,-0.0405 -0.22353,0 -0.0943,0.0569 -0.1293,0.21356 -0.22355,0.27061 -0.0666,0.0405 -0.1569,-0.0405 -0.22355,0 -0.1885,0.11412 -0.25858,0.42714 -0.44708,0.54125 -0.0667,0.0405 -0.1569,-0.0405 -0.22355,0 -0.18851,0.11412 -0.25857,0.42715 -0.44709,0.54125 -0.13327,0.0808 -0.31378,-0.0808 -0.44707,0 -0.18851,0.11413 -0.25858,0.42715 -0.4471,0.54126 -0.0667,0.0405 -0.15689,-0.0405 -0.22352,0 -0.0943,0.0569 -0.12931,0.21356 -0.22355,0.27062 -0.0667,0.0405 -0.1569,-0.0405 -0.22356,0 -0.0943,0.0569 -0.12928,0.21356 -0.22353,0.27063 -0.0666,0.0404 -0.1569,-0.0405 -0.22355,0 -0.0943,0.0569 -0.12927,0.21355 -0.22355,0.27062 -0.0667,0.0405 -0.15688,-0.0405 -0.22352,0 -0.18852,0.11412 -0.25859,0.42714 -0.44709,0.54125 -0.0667,0.0405 -0.1569,-0.0405 -0.22354,0 -0.0943,0.057 -0.12931,0.21358 -0.22355,0.27062 -0.0666,0.0405 -0.15689,-0.0403 -0.22355,0 -0.0943,0.0571 -0.12928,0.21359 -0.22354,0.27064 -0.0666,0.0405 -0.1569,-0.0405 -0.22354,0 -0.18851,0.11412 -0.25857,0.42712 -0.44709,0.54124 -0.0667,0.0405 -0.15689,-0.0405 -0.22353,0 -0.0943,0.0571 -0.1293,0.21357 -0.22354,0.27063 -0.0666,0.0405 -0.15691,-0.0405 -0.22356,0 -0.0943,0.0569 -0.12928,0.21357 -0.22354,0.27064 -0.0666,0.0403 -0.15688,-0.0405 -0.22354,0 -0.0943,0.0569 -0.12929,0.21355 -0.22354,0.2706 -0.0667,0.0405 -0.15689,-0.0405 -0.22355,0 -0.0943,0.0571 -0.12929,0.21358 -0.22354,0.27064 -0.17884,0.10821 -0.4918,-0.10833 -0.67063,0 -0.18851,0.11411 -0.25858,0.42713 -0.44707,0.54124 -0.0667,0.0404 -0.1569,-0.0403 -0.22355,0 -0.0943,0.0569 -0.1293,0.21358 -0.22355,0.27064 -0.0666,0.0405 -0.15689,-0.0405 -0.22353,0 -0.0943,0.0569 -0.12931,0.21358 -0.22355,0.27062 -0.0667,0.0405 -0.15691,-0.0405 -0.22356,0 -0.1885,0.11412 -0.25856,0.42713 -0.44708,0.54124 -0.0666,0.0405 -0.15688,-0.0405 -0.22354,0 -0.0943,0.057 -0.12927,0.21359 -0.22353,0.27063 -0.0667,0.0403 -0.1569,-0.0405 -0.22355,0 -0.18849,0.11413 -0.25858,0.42713 -0.44707,0.54125 -0.0667,0.0405 -0.15692,-0.0405 -0.22357,0 -0.0943,0.0569 -0.12928,0.21359 -0.22354,0.27062 -0.0666,0.0405 -0.15689,-0.0404 -0.22353,0 -0.0943,0.0569 -0.13587,0.19988 -0.22356,0.27062 -0.27727,0.22377 -0.61689,0.31747 -0.89415,0.54127 -0.0876,0.0708 -0.12929,0.21357 -0.22355,0.27061 -0.0666,0.0405 -0.1569,-0.0405 -0.22356,0 -0.19811,0.11998 -0.46711,0.64763 -0.67062,0.81189 -0.13863,0.11191 -0.30845,0.15873 -0.44707,0.27062 -0.2035,0.16423 -0.47251,0.69193 -0.67064,0.81187 -0.0666,0.0405 -0.15688,-0.0405 -0.22354,0 -0.19814,0.11986 -0.46712,0.64765 -0.67063,0.81187 -0.81201,0.65537 -0.15808,-0.0793 -0.67061,0.54126 -0.0745,0.0903 -0.14904,0.18041 -0.22356,0.27063 -0.0745,0.0903 -0.12929,0.21357 -0.22354,0.27063 -0.0666,0.0405 -0.15689,-0.0405 -0.22353,0 -0.18851,0.11412 -0.27174,0.39972 -0.4471,0.54125 -0.13864,0.11193 -0.30846,0.15873 -0.44709,0.27062 -0.26303,0.21229 -0.41771,0.58224 -0.67062,0.81187 -0.13329,0.1211 -0.30846,0.15874 -0.44708,0.27064 -0.17536,0.14152 -0.29807,0.36083 -0.44709,0.54123 -0.29806,0.36085 -0.59612,0.72167 -0.89417,1.08252 -0.51254,0.62049 0.14137,-0.11412 -0.67062,0.54126 -0.093,0.0749 -0.8542,0.9857 -0.8942,1.08248 -0.0333,0.0808 0.0333,0.18995 0,0.27063 -0.0597,0.14454 -0.55293,0.66939 -0.67062,0.81187 -0.22352,0.27063 -0.44707,0.54126 -0.67063,0.81188 -0.14901,0.18043 -0.33017,0.32895 -0.44708,0.54126 -0.0924,0.16781 -0.14903,0.36082 -0.22355,0.54125 -0.0745,0.18042 -0.17086,0.34987 -0.22353,0.54124 -0.0236,0.0856 0.0333,0.18994 0,0.27061 -0.0943,0.22823 -0.33018,0.32895 -0.4471,0.54126 -0.0923,0.16785 -0.13112,0.37343 -0.22353,0.54126 -0.13566,0.24635 -0.57155,0.57201 -0.67063,0.81187 -0.0333,0.0808 0.0333,0.18994 0,0.27062 -0.0943,0.22822 -0.33017,0.32896 -0.44708,0.54126 -0.0924,0.16782 -0.13113,0.37342 -0.22355,0.54124 -0.1169,0.21231 -0.33017,0.32896 -0.44707,0.54126 -0.49252,0.13629 -0.11818,0.55673 -0.22357,0.81188 -0.13412,0.32477 -0.53648,0.48714 -0.67062,0.81189 -0.0333,0.0808 0.0333,0.18994 0,0.27065 -0.0943,0.22821 -0.33017,0.32889 -0.44707,0.5412 -0.27514,0.49961 -0.39551,1.12412 -0.67064,1.62377 -0.0584,0.10614 -0.16508,0.16447 -0.22355,0.27068 -0.0924,0.16777 -0.14902,0.3608 -0.22354,0.54121 -0.0745,0.18041 -0.17086,0.34989 -0.22354,0.54128 -0.0236,0.0856 0.0333,0.18997 0,0.27055 -0.0471,0.11412 -0.16509,0.1645 -0.22354,0.27066 -0.0924,0.16791 -0.13111,0.37346 -0.22353,0.5412 -0.0584,0.10625 -0.17642,0.15655 -0.22355,0.27068 -0.0333,0.0808 0.0333,0.18989 0,0.27061 -0.74141,0.89755 0.10537,-0.25515 -0.22356,0.54128 -0.047,0.11412 -0.17641,0.15647 -0.22353,0.2706 -0.0333,0.0808 0.0333,0.18996 0,0.27061 -0.047,0.11413 -0.1764,0.15646 -0.22354,0.27067 -0.0333,0.0808 0.0333,0.18989 0,0.2706 -0.0471,0.11414 -0.17642,0.15648 -0.22356,0.27061 -0.0894,0.21641 0.0894,0.59548 0,0.8118 -0.047,0.11425 -0.17641,0.15663 -0.22353,0.27061 -0.0894,0.21656 0.0894,0.59547 0,0.81189 -0.0471,0.11426 -0.17641,0.15662 -0.22354,0.27068 -0.0667,0.16136 0.0666,0.37992 0,0.5412 -0.047,0.11425 -0.17642,0.15661 -0.22355,0.27067 -0.0294,0.0712 0,0.94099 0,1.0825 0,0.72161 0,1.44336 0,2.16512 0,0.72162 0,1.4433 0,2.16491 0,0.0646 -0.025,1.02184 0,1.08264 0.0471,0.114 0.17643,0.1563 0.22355,0.2705 0.0666,0.1614 -0.0667,0.3799 0,0.5413 0.0471,0.1141 0.17642,0.1564 0.22354,0.2706 0.0667,0.1614 -0.0667,0.3799 0,0.5413 0.047,0.1141 0.17642,0.1564 0.22353,0.2706 0.0333,0.081 -0.0333,0.1899 0,0.2706 0.0471,0.1141 0.17643,0.1564 0.22356,0.2706 0.0333,0.081 -0.0333,0.1899 0,0.2707 0.0943,0.2282 0.35282,0.3129 0.44707,0.5412 0.0333,0.081 -0.0333,0.1899 0,0.2706 0.0517,0.1253 0.76271,0.9233 0.89418,1.0825 0.0745,0.091 0.17642,0.1565 0.22354,0.2707 0.0668,0.1612 -0.0666,0.3797 0,0.5412 0.0297,0.072 0.61128,0.776 0.67063,0.8118 0.13331,0.081 0.3138,-0.081 0.4471,0 0.0943,0.057 0.12928,0.2138 0.22353,0.2707 0.0667,0.04 0.14902,0 0.22354,0 0.0745,0.09 0.1293,0.2136 0.22356,0.2706 0.17881,0.1082 0.49179,-0.1082 0.67063,0 0.0943,0.057 0.12927,0.2136 0.22353,0.2706 0.1333,0.081 0.31379,-0.081 0.44709,0 0.0943,0.057 0.12928,0.2136 0.22354,0.2707 0.13329,0.081 0.31379,-0.081 0.44708,0 0.0943,0.057 0.12929,0.2136 0.22353,0.2706 0.14052,0.085 0.75368,-0.085 0.89419,0 0.0943,0.057 0.12928,0.2136 0.22353,0.2705 0.17884,0.1084 0.49182,-0.1081 0.67063,0 0.0943,0.057 0.1293,0.2137 0.22356,0.2708 0.13573,0.082 1.2055,-0.082 1.34125,0 0.0943,0.057 0.12929,0.2136 0.22354,0.2706 0.13574,0.082 1.20553,-0.082 1.34125,0 0.0943,0.057 0.12929,0.2136 0.22354,0.2705 0.1333,0.081 0.31379,-0.081 0.4471,0 0.0943,0.057 0.12928,0.2137 0.22354,0.2708 0.13329,0.081 0.31379,-0.081 0.44708,0 0.0428,0.026 0.87278,1.0307 0.89417,1.0825 0.0333,0.081 -0.0333,0.1899 0,0.2706 0.047,0.1141 0.17642,0.1564 0.22356,0.2706 0.0333,0.081 -0.0333,0.1899 0,0.2706 0.047,0.1141 0.17641,0.1565 0.22353,0.2707 0.0294,0.071 0,0.9409 0,1.0824 0,0.2706 0,0.5413 0,0.8119 0,0.09 0,0.3609 0,0.2706 0,-0.1804 0,-0.7216 0,-0.5412 0,0.2706 0.0543,0.5494 0,0.8119 -0.0512,0.2475 -0.35284,0.3129 -0.44709,0.5412 -0.0333,0.081 0.0333,0.19 0,0.2707 -0.0472,0.114 -0.14903,0.1803 -0.22355,0.2706 -0.0745,0.091 -0.14901,0.3609 -0.22353,0.2706 -0.0745,-0.09 0.29805,-0.3609 0.22353,-0.2706 -0.14901,0.1804 -0.29804,0.3609 -0.44707,0.5411 -0.0745,0.09 -0.14904,0.1805 -0.22355,0.2708 -0.0745,0.09 -0.12928,0.2135 -0.22353,0.2706 -0.0667,0.04 -0.15691,-0.04 -0.22355,0 -0.18851,0.1141 -0.25858,0.4271 -0.44709,0.5413 -0.0666,0.04 -0.1569,-0.04 -0.22355,0 -0.0943,0.057 -0.12928,0.2135 -0.22354,0.2706 -0.0666,0.04 -0.15689,-0.04 -0.22353,0 -0.0943,0.057 -0.12929,0.2135 -0.22356,0.2705 -0.13328,0.081 -0.31378,-0.081 -0.44706,0 -0.0943,0.057 -0.12931,0.2135 -0.22356,0.2707 -0.1333,0.081 -0.31378,-0.081 -0.44708,0 -0.0943,0.057 -0.12929,0.2136 -0.22356,0.2706 -0.068,0.042 -0.56995,0 -0.67062,0 -0.10061,0 -0.60259,-0.042 -0.67063,0 -0.0943,0.057 -0.12928,0.2135 -0.22353,0.2706 -0.0666,0.04 -0.22355,0.091 -0.22355,0 0,-0.091 0.14905,0 0.22355,0"
       id="path3023"
       inkscape:connector-curvature="0" />
    <text
       xml:space="preserve"
       style="font-size:40px;font-style:normal;font-weight:normal;line-height:125%;letter-spacing:0px;word-spacing:0px;fill:#000000;fill-opacity:1;stroke:none;font-family:Sans"
       x="298.12646"
       y="1002.1995"
       id="text4753"
       sodipodi:linespacing="125%"><tspan
         sodipodi:role="line"
         id="tspan4755"
         x="298.12646"
         y="1002.1995">V</tspan></text>
    <text
       xml:space="preserve"
       style="font-size:31.39469337px;font-style:normal;font-weight:normal;line-height:125%;letter-spacing:0px;word-spacing:0px;fill:#000000;fill-opacity:1;stroke:none;font-family:Sans"
       x="281.8147"
       y="1115.7965"
       id="text3897-5"
       sodipodi:linespacing="125%"
       transform="scale(1.1520246,0.86803702)"><tspan
         sodipodi:role="line"
         id="tspan3899-0"
         x="281.8147"
         y="1115.7965">2</tspan></text>
  </g>
</svg>
